<?xml version="1.0" encoding="UTF-8"?>
<svg width="19px" height="24px" viewBox="0 0 19 24" version="1.1" xmlns="http://www.w3.org/2000/svg" xmlns:xlink="http://www.w3.org/1999/xlink">
    <!-- Generator: Sketch 45.2 (43514) - http://www.bohemiancoding.com/sketch -->
    <title>Page 1</title>
    <desc>Created with Sketch.</desc>
    <defs>
        <polygon id="path-1" points="18 11.99994 18 0 0 0 0 11.99994 0 23.99988 18 23.99988"></polygon>
    </defs>
    <g id="-" stroke="none" stroke-width="1" fill="none" fill-rule="evenodd">
        <g id="Nexus-5---MDPI---Active-Copy" transform="translate(-213.000000, -404.000000)">
            <g id="Page-1" transform="translate(213.333333, 404.000000)">
                <g id="Group-3">
                    <mask id="mask-2" fill="white">
                        <use xlink:href="#path-1"></use>
                    </mask>
                    <g id="Clip-2"></g>
                    <path d="M14.4,20.40468 C14.4,21.06348 13.8636,21.59988 13.2048,21.59988 L4.7952,21.59988 C4.1364,21.59988 3.6,21.06348 3.6,20.40468 L3.6,4.79988 L14.4,4.79988 L14.4,20.40468 Z M9,1.19988 C9.8844,1.19988 10.65,1.68588 11.0664,2.39988 L6.9336,2.39988 C7.35,1.68588 8.1156,1.19988 9,1.19988 L9,1.19988 Z M16.8,2.39988 L12.3792,2.39988 C11.8836,1.00548 10.5648,-0.00012 9,-0.00012 C7.4352,-0.00012 6.1164,1.00548 5.6208,2.39988 L1.2,2.39988 C0.5364,2.39988 0,2.93628 0,3.59988 C0,4.26348 0.5364,4.79988 1.2,4.79988 L1.2,20.40468 C1.2,22.38708 2.8128,23.99988 4.7952,23.99988 L13.2048,23.99988 C15.1872,23.99988 16.8,22.38708 16.8,20.40468 L16.8,4.79988 C17.4636,4.79988 18,4.26348 18,3.59988 C18,2.93628 17.4636,2.39988 16.8,2.39988 L16.8,2.39988 Z" id="Fill-1" fill="#272727" mask="url(#mask-2)"></path>
                </g>
                <path d="M9.03744,18.6 L9.03984,18.6 C9.37104,18.5988 9.63864,18.3288 9.63744,17.9976 L9.60024,8.3976 C9.59904,8.0676 9.33024,7.8 9.00024,7.8 L8.99784,7.8 C8.66544,7.8012 8.39904,8.0712 8.40024,8.4024 L8.43744,18.0024 C8.43864,18.3324 8.70744,18.6 9.03744,18.6" id="Fill-4" fill="#272727"></path>
                <path d="M12,18.6 C12.3312,18.6 12.6,18.3312 12.6,18 L12.6,8.4 C12.6,8.0688 12.3312,7.8 12,7.8 C11.6688,7.8 11.4,8.0688 11.4,8.4 L11.4,18 C11.4,18.3312 11.6688,18.6 12,18.6" id="Fill-6" fill="#272727"></path>
                <path d="M6,18.6 C6.3312,18.6 6.6,18.3312 6.6,18 L6.6,8.4 C6.6,8.0688 6.3312,7.8 6,7.8 C5.6688,7.8 5.4,8.0688 5.4,8.4 L5.4,18 C5.4,18.3312 5.6688,18.6 6,18.6" id="Fill-8" fill="#272727"></path>
            </g>
        </g>
    </g>
</svg>