<?xml version="1.0" encoding="UTF-8"?>
<svg width="21px" height="19px" viewBox="0 0 21 19" version="1.1" xmlns="http://www.w3.org/2000/svg" xmlns:xlink="http://www.w3.org/1999/xlink">
    <!-- Generator: Sketch 45.2 (43514) - http://www.bohemiancoding.com/sketch -->
    <title>menu_refresh</title>
    <desc>Created with Sketch.</desc>
    <defs></defs>
    <g id="-" stroke="none" stroke-width="1" fill="none" fill-rule="evenodd">
        <g id="Nexus-5---MDPI---Active-Copy" transform="translate(-215.000000, -558.000000)">
            <g id="ios_bottomNav-panel-refresh" transform="translate(213.000000, 555.000000)">
                <rect id="25-copy-3" fill-opacity="0" fill="#1AEAFF" opacity="0.25" x="0" y="0" width="25" height="25"></rect>
                <g id="Page-1" stroke-width="1" transform="translate(2.000000, 3.000000)" fill="#272727">
                    <path d="M0,9.45543346 C0,4.24278807 4.18913389,0 9.33586031,0 C13.8957612,0 17.7568063,3.31345404 18.5196795,7.8804284 C18.6423793,8.61525065 18.1515798,9.31360195 17.4247164,9.43652259 C16.6991867,9.54728624 16.0123341,9.06370836 15.8883006,8.3288861 C15.345487,5.06811233 12.5887408,2.70155242 9.33586031,2.70155242 C5.65886504,2.70155242 2.66738866,5.73134345 2.66738866,9.45543346 C2.66738866,13.1795235 5.65886504,16.2093145 9.33586031,16.2093145 C11.1176759,16.2093145 12.7914623,15.5055601 14.0504698,14.2304274 C14.5719443,13.7036246 15.4161728,13.7036246 15.9363136,14.2304274 C16.457788,14.7572301 16.457788,15.6136222 15.9363136,16.1404249 C14.1745033,17.9261511 11.8298687,18.9108669 9.33586031,18.9108669 C4.18913389,18.9108669 0,14.6680788 0,9.45543346 Z" id="Fill-1"></path>
                    <path d="M12.003249,9.45543346 C11.265716,9.45543346 10.6695546,8.85163649 10.6695546,8.10465725 C10.6695546,7.357678 11.265716,6.75388104 12.003249,6.75388104 L17.3380263,6.75388104 L17.3380263,1.35077621 C17.3380263,0.603796965 17.9341877,0 18.6717206,0 C19.4092536,0 20.005415,0.603796965 20.005415,1.35077621 L20.005415,8.10465725 C20.005415,8.85163649 19.4092536,9.45543346 18.6717206,9.45543346 L12.003249,9.45543346 Z" id="Fill-3"></path>
                </g>
            </g>
        </g>
    </g>
</svg>