<?xml version="1.0" encoding="UTF-8"?>
<svg width="21px" height="23px" viewBox="0 0 21 23" version="1.1" xmlns="http://www.w3.org/2000/svg" xmlns:xlink="http://www.w3.org/1999/xlink">
    <!-- Generator: Sketch 45.2 (43514) - http://www.bohemiancoding.com/sketch -->
    <title>Page 1</title>
    <desc>Created with Sketch.</desc>
    <defs></defs>
    <g id="-" stroke="none" stroke-width="1" fill="none" fill-rule="evenodd">
        <g id="Nexus-5---MDPI---Active-Copy" transform="translate(-33.000000, -475.000000)">
            <g id="Page-1" transform="translate(33.000000, 475.000000)">
                <path d="M4.42105263,6.63157895 C1.97952632,6.63157895 0,8.61110526 0,11.0526316 C0,13.4941579 1.97952632,15.4736842 4.42105263,15.4736842 C6.86257895,15.4736842 8.84210526,13.4941579 8.84210526,11.0526316 C8.84210526,8.61110526 6.86257895,6.63157895 4.42105263,6.63157895 M4.42105263,8.84210526 C5.64015789,8.84210526 6.63157895,9.83352632 6.63157895,11.0526316 C6.63157895,12.2717368 5.64015789,13.2631579 4.42105263,13.2631579 C3.20194737,13.2631579 2.21052632,12.2717368 2.21052632,11.0526316 C2.21052632,9.83352632 3.20194737,8.84210526 4.42105263,8.84210526" id="Fill-1" fill="#000000"></path>
                <path d="M16.5789474,0 C14.1374211,0 12.1578947,1.97952632 12.1578947,4.42105263 C12.1578947,6.86257895 14.1374211,8.84210526 16.5789474,8.84210526 C19.0204737,8.84210526 21,6.86257895 21,4.42105263 C21,1.97952632 19.0204737,0 16.5789474,0 M16.5789474,2.21052632 C17.7980526,2.21052632 18.7894737,3.20194737 18.7894737,4.42105263 C18.7894737,5.64015789 17.7980526,6.63157895 16.5789474,6.63157895 C15.3598421,6.63157895 14.3684211,5.64015789 14.3684211,4.42105263 C14.3684211,3.20194737 15.3598421,2.21052632 16.5789474,2.21052632" id="Fill-3" fill="#272727"></path>
                <path d="M4.42105263,6.63157895 C1.97952632,6.63157895 0,8.61110526 0,11.0526316 C0,13.4941579 1.97952632,15.4736842 4.42105263,15.4736842 C6.86257895,15.4736842 8.84210526,13.4941579 8.84210526,11.0526316 C8.84210526,8.61110526 6.86257895,6.63157895 4.42105263,6.63157895 M4.42105263,8.84210526 C5.64015789,8.84210526 6.63157895,9.83352632 6.63157895,11.0526316 C6.63157895,12.2717368 5.64015789,13.2631579 4.42105263,13.2631579 C3.20194737,13.2631579 2.21052632,12.2717368 2.21052632,11.0526316 C2.21052632,9.83352632 3.20194737,8.84210526 4.42105263,8.84210526" id="Fill-5" fill="#272727"></path>
                <path d="M16.5789474,13.2631579 C14.1374211,13.2631579 12.1578947,15.2426842 12.1578947,17.6842105 C12.1578947,20.1257368 14.1374211,22.1052632 16.5789474,22.1052632 C19.0204737,22.1052632 21,20.1257368 21,17.6842105 C21,15.2426842 19.0204737,13.2631579 16.5789474,13.2631579 M16.5789474,15.4736842 C17.7980526,15.4736842 18.7894737,16.4651053 18.7894737,17.6842105 C18.7894737,18.9033158 17.7980526,19.8947368 16.5789474,19.8947368 C15.3598421,19.8947368 14.3684211,18.9033158 14.3684211,17.6842105 C14.3684211,16.4651053 15.3598421,15.4736842 16.5789474,15.4736842" id="Fill-7" fill="#272727"></path>
                <path d="M7.68434211,10.5317211 L14.3756053,6.88214211 C13.8207632,6.38477368 13.4383421,5.71056316 13.3156579,4.94240526 L6.62439474,8.59198421 C7.17923684,9.08824737 7.56276316,9.76356316 7.68434211,10.5317211" id="Fill-9" fill="#272727"></path>
                <path d="M14.3753842,15.2232316 L7.68412105,11.5736526 C7.56254211,12.3418105 7.17901579,13.0171263 6.62417368,13.5133895 L13.3154368,17.1629684 C13.4381211,16.3948105 13.8205421,15.7194947 14.3753842,15.2232316" id="Fill-11" fill="#272727"></path>
            </g>
        </g>
    </g>
</svg>