<?xml version="1.0" encoding="UTF-8"?>
<svg width="22px" height="22px" viewBox="0 0 22 22" version="1.1" xmlns="http://www.w3.org/2000/svg" xmlns:xlink="http://www.w3.org/1999/xlink">
    <!-- Generator: Sketch 45.2 (43514) - http://www.bohemiancoding.com/sketch -->
    <title>bottomNav-panel-homepage</title>
    <desc>Created with Sketch.</desc>
    <defs>
        <polygon id="path-1" points="-0.338334147 22.3383251 22.3386741 22.3383251 22.3386741 -0.338343189 -0.338334147 -0.338343189"></polygon>
    </defs>
    <g id="-" stroke="none" stroke-width="1" fill="none" fill-rule="evenodd">
        <g id="Nexus-5---MDPI---Active-Copy" transform="translate(-125.000000, -475.000000)">
            <g id="ios_bottomNav-panel-homepage" transform="translate(125.000000, 475.000000)">
                <mask id="mask-2" fill="white">
                    <use xlink:href="#path-1"></use>
                </mask>
                <g id="Clip-2"></g>
                <path d="M16.4998281,17.8747852 C16.4998281,18.6337614 15.8838474,19.2497422 15.1248711,19.2497422 L13.7499141,19.2497422 L13.7499141,12.374957 C13.7499141,11.6159808 13.1339333,11 12.374957,11 L9.62504297,11 C8.86606669,11 8.25008593,11.6159808 8.25008593,12.374957 L8.25008593,19.2497422 L6.8751289,19.2497422 C6.11615262,19.2497422 5.50017187,18.6337614 5.50017187,17.8747852 L5.50017187,8.81931815 L11,3.31949002 L16.4998281,8.81931815 L16.4998281,17.8747852 Z M11,15.8123496 C11,15.4328615 11.3079904,15.1248711 11.6874785,15.1248711 C12.0669667,15.1248711 12.374957,15.4328615 12.374957,15.8123496 C12.374957,16.1918378 12.0669667,16.4998281 11.6874785,16.4998281 C11.3079904,16.4998281 11,16.1918378 11,15.8123496 L11,15.8123496 Z M21.5967939,10.0279054 L11.9720946,0.40320615 C11.4344864,-0.13440205 10.5655136,-0.13440205 10.0279054,0.40320615 L0.40320615,10.0279054 C-0.13440205,10.5655136 -0.13440205,11.4344864 0.40320615,11.9720946 C0.94081435,12.5097028 1.80978719,12.5097028 2.34739539,11.9720946 L2.7502578,11.5692322 L2.7502578,19.2497422 C2.7502578,20.7690697 3.98084435,21.9996563 5.50017187,21.9996563 L16.4998281,21.9996563 C18.0191557,21.9996563 19.2497422,20.7690697 19.2497422,19.2497422 L19.2497422,11.5692322 L19.6526046,11.9720946 C19.9207212,12.2402112 20.2727102,12.374957 20.6246992,12.374957 C20.9766882,12.374957 21.3286772,12.2402112 21.5967939,11.9720946 C22.134402,11.4344864 22.134402,10.5655136 21.5967939,10.0279054 L21.5967939,10.0279054 Z" id="Fill-1" fill="#272727" fill-rule="evenodd" mask="url(#mask-2)"></path>
            </g>
        </g>
    </g>
</svg>