<?xml version="1.0" encoding="UTF-8"?>
<svg width="13px" height="13px" viewBox="0 0 13 13" version="1.1" xmlns="http://www.w3.org/2000/svg" xmlns:xlink="http://www.w3.org/1999/xlink">
    <!-- Generator: Sketch 45.2 (43514) - http://www.bohemiancoding.com/sketch -->
    <title>Page 1</title>
    <desc>Created with Sketch.</desc>
    <defs></defs>
    <g id="-" stroke="none" stroke-width="1" fill="none" fill-rule="evenodd">
        <g id="Zerda---Browsing-offline" transform="translate(-340.000000, -29.000000)" fill="#FFFFFF">
            <path d="M349.345099,37.6680533 C349.532063,37.8550174 349.532063,38.1581353 349.345099,38.3450994 C349.251617,38.4385814 349.129252,38.4854777 349.006576,38.4854777 C348.883901,38.4854777 348.761535,38.4385814 348.668053,38.3450994 L346.133789,35.8108351 L343.599525,38.3450994 C343.506043,38.4385814 343.383678,38.4854777 343.261002,38.4854777 C343.138326,38.4854777 343.015961,38.4385814 342.922479,38.3450994 C342.735515,38.1581353 342.735515,37.8550174 342.922479,37.6680533 L345.456743,35.1337891 L342.922479,32.5995248 C342.735515,32.4125607 342.735515,32.1094428 342.922479,31.9224787 C343.109443,31.7355146 343.412561,31.7355146 343.599525,31.9224787 L346.133789,34.456743 L348.668053,31.9224787 C348.855017,31.7355146 349.158135,31.7355146 349.345099,31.9224787 C349.532063,32.1094428 349.532063,32.4125607 349.345099,32.5995248 L346.810835,35.1337891 L349.345099,37.6680533 Z M346.133789,29 C342.746074,29 340,31.7460741 340,35.1337891 C340,38.5215041 342.746074,41.2675781 346.133789,41.2675781 C349.521504,41.2675781 352.267578,38.5215041 352.267578,35.1337891 C352.267578,31.7460741 349.521504,29 346.133789,29 L346.133789,29 Z" id="Page-1"></path>
        </g>
    </g>
</svg>