<?xml version="1.0" encoding="UTF-8"?>
<svg width="24px" height="23px" viewBox="0 0 24 23" version="1.1" xmlns="http://www.w3.org/2000/svg" xmlns:xlink="http://www.w3.org/1999/xlink">
    <!-- Generator: Sketch 45.2 (43514) - http://www.bohemiancoding.com/sketch -->
    <title>Page 1</title>
    <desc>Created with Sketch.</desc>
    <defs>
        <polygon id="path-1" points="0 9.76425082 0 0.364278646 21.4861111 0.364278646 21.4861111 19.164223 0 19.164223"></polygon>
    </defs>
    <g id="-" stroke="none" stroke-width="1" fill="none" fill-rule="evenodd">
        <g id="Zerda---Intro-Copy" transform="translate(-301.000000, -476.000000)">
            <g id="Page-1" transform="translate(301.000000, 476.000000)">
                <g id="Group-3" transform="translate(0.000000, 0.179006)">
                    <mask id="mask-2" fill="white">
                        <use xlink:href="#path-1"></use>
                    </mask>
                    <g id="Clip-2"></g>
                    <path d="M4.02864583,3.04963967 L17.4574653,3.04963967 C18.1987361,3.04963967 18.8003472,3.65125078 18.8003472,4.39252161 L18.8003472,5.73540356 L2.68576389,5.73540356 L2.68576389,4.39252161 C2.68576389,3.65125078 3.287375,3.04963967 4.02864583,3.04963967 M8.05729167,16.4784591 L4.02864583,16.4784591 C3.287375,16.4784591 2.68576389,15.876848 2.68576389,15.1355772 L2.68576389,7.0782855 L18.8003472,7.0782855 C18.8003472,7.82089922 19.4006155,8.42116745 20.1432292,8.42116745 C20.8858429,8.42116745 21.4861111,7.82089922 21.4861111,7.0782855 L21.4861111,4.39252161 C21.4861111,2.17139488 19.678592,0.363875781 17.4574653,0.363875781 L4.02864583,0.363875781 C1.8075191,0.363875781 0,2.17139488 0,4.39252161 L0,15.1355772 C0,17.3567039 1.8075191,19.164223 4.02864583,19.164223 L8.05729167,19.164223 C8.79990538,19.164223 9.40017361,18.5639548 9.40017361,17.8213411 C9.40017361,17.0787273 8.79990538,16.4784591 8.05729167,16.4784591" id="Fill-1" fill="#272727" mask="url(#mask-2)"></path>
                </g>
                <path d="M19.2166406,20.6959141 C19.6611345,19.6592093 19.9001675,18.2156112 19.9525399,16.7693273 L22.3388411,16.7693273 C22.1118941,18.582218 20.8791285,20.0808742 19.2166406,20.6959141 L19.2166406,20.6959141 Z M16.3495877,15.5607336 C16.4543325,12.7823109 17.256033,11.3306555 17.5460955,11.3306555 C17.836158,11.3306555 18.6392014,12.7823109 18.7439462,15.5607336 L16.3495877,15.5607336 Z M17.5460955,20.9994055 C17.256033,20.9994055 16.4543325,19.5477501 16.3495877,16.7693273 L18.7439462,16.7693273 C18.6392014,19.5477501 17.836158,20.9994055 17.5460955,20.9994055 L17.5460955,20.9994055 Z M15.1409939,15.5607336 L12.7546927,15.5607336 C12.9816398,13.7491859 14.2144054,12.2491867 15.8768932,11.6341468 C15.4310564,12.6708516 15.1933663,14.1144497 15.1409939,15.5607336 L15.1409939,15.5607336 Z M12.7546927,16.7693273 L15.1409939,16.7693273 C15.1933663,18.2156112 15.4310564,19.6592093 15.8768932,20.6959141 C14.2144054,20.0808742 12.9816398,18.582218 12.7546927,16.7693273 L12.7546927,16.7693273 Z M22.3388411,15.5607336 L19.9525399,15.5607336 C19.9001675,14.1144497 19.6611345,12.6708516 19.2166406,11.6341468 C20.8791285,12.2491867 22.1118941,13.7491859 22.3388411,15.5607336 L22.3388411,15.5607336 Z M17.5471266,10.1220617 C14.214868,10.1220617 11.5031267,12.833803 11.5031267,16.1660616 C11.5031267,19.4983202 14.214868,22.2100614 17.5471266,22.2100614 C20.8793852,22.2100614 23.5911265,19.4983202 23.5911265,16.1660616 C23.5911265,12.833803 20.8793852,10.1220617 17.5471266,10.1220617 L17.5471266,10.1220617 Z" id="Fill-4" fill="#272727"></path>
            </g>
        </g>
    </g>
</svg>