<?xml version="1.0" encoding="UTF-8"?>
<svg width="22px" height="22px" viewBox="0 0 22 22" version="1.1" xmlns="http://www.w3.org/2000/svg" xmlns:xlink="http://www.w3.org/1999/xlink">
    <!-- Generator: Sketch 45.2 (43514) - http://www.bohemiancoding.com/sketch -->
    <title>bottomNav-panel-settings</title>
    <desc>Created with Sketch.</desc>
    <defs></defs>
    <g id="-" stroke="none" stroke-width="1" fill="none" fill-rule="evenodd">
        <g id="Nexus-5---MDPI---Active-Copy" transform="translate(-207.000000, -476.000000)" fill-rule="nonzero" fill="#272727">
            <g id="ios_bottomNav-panel-settings" transform="translate(207.000000, 476.000000)">
                <path d="M20.625,9.625 L17.7375,9.625 C17.5602021,8.76426896 17.2184528,7.94584469 16.731,7.214625 L18.77975,5.165875 C19.3008368,4.62635403 19.2933845,3.76875843 18.7630005,3.23837446 C18.2326166,2.70799049 17.375021,2.70053821 16.8355,3.221625 L14.78675,5.270375 C14.0552043,4.78230577 13.2362983,4.44008336 12.375,4.2625 L12.375,1.375 C12.375,0.615608469 11.7593915,4.64993204e-17 11,0 C10.2406085,-4.64993204e-17 9.625,0.615608469 9.625,1.375 L9.625,4.2625 C8.76427917,4.43983097 7.94586104,4.78157773 7.214625,5.269 L5.165875,3.22025 C4.62860549,2.6833602 3.75782732,2.68366801 3.22093751,3.22093751 C2.68404771,3.75820702 2.68435551,4.62898519 3.221625,5.165875 L5.270375,7.214625 C4.78243737,7.94573972 4.44021859,8.76417019 4.2625,9.625 L1.375,9.625 C0.615608469,9.625 9.29986408e-17,10.2406085 0,11 C-9.29986408e-17,11.7593915 0.615608469,12.375 1.375,12.375 L4.2625,12.375 C4.44024615,13.2410034 4.78440273,14.0642708 5.275875,14.799125 C5.256625,14.817 5.231875,14.8225 5.214,14.840375 L3.22025,16.834125 C2.8628097,17.1793524 2.71945768,17.6905821 2.84529141,18.1713226 C2.97112514,18.652063 3.34656196,19.0274999 3.82730243,19.1533336 C4.3080429,19.2791673 4.8192726,19.1358153 5.1645,18.778375 L7.15825,16.784625 C7.176125,16.76675 7.183,16.742 7.1995,16.72275 C7.93466277,17.2148703 8.75841838,17.5595028 9.625,17.7375 L9.625,20.625 C9.625,21.3843915 10.2406085,22 11,22 C11.7593915,22 12.375,21.3843915 12.375,20.625 L12.375,17.7375 C13.2357208,17.560169 14.054139,17.2184223 14.785375,16.731 L16.834125,18.77975 C17.373646,19.3008368 18.2312416,19.2933845 18.7616255,18.7630005 C19.2920095,18.2326166 19.2994618,17.375021 18.778375,16.8355 L16.729625,14.78675 C17.2177248,14.0552207 17.5599498,13.2363086 17.7375,12.375 L20.625,12.375 C21.3843915,12.375 22,11.7593915 22,11 C22,10.2406085 21.3843915,9.625 20.625,9.625 Z M6.875,11 C6.875,8.72182541 8.72182541,6.875 11,6.875 C13.2781746,6.875 15.125,8.72182541 15.125,11 C15.125,13.2781746 13.2781746,15.125 11,15.125 C8.72182541,15.125 6.875,13.2781746 6.875,11 Z" id="Preferences---16---macOS"></path>
            </g>
        </g>
    </g>
</svg>