<?xml version="1.0" encoding="UTF-8"?>
<svg width="20px" height="20px" viewBox="0 0 20 20" version="1.1" xmlns="http://www.w3.org/2000/svg" xmlns:xlink="http://www.w3.org/1999/xlink">
    <!-- Generator: Sketch 45.2 (43514) - http://www.bohemiancoding.com/sketch -->
    <title>Page 1</title>
    <desc>Created with Sketch.</desc>
    <defs></defs>
    <g id="-" stroke="none" stroke-width="1" fill="none" fill-rule="evenodd">
        <g id="Nexus-5---MDPI---Toolbar---Regular" transform="translate(-172.000000, -165.000000)" fill="#272727">
            <g id="Page-1" transform="translate(172.000000, 165.000000)">
                <path d="M11.78575,16.428625 C12.772,16.428625 13.572,17.228625 13.572,18.214875 C13.572,19.201125 12.772,19.999875 11.78575,19.999875 C10.7995,19.999875 9.9995,19.201125 9.9995,18.214875 C9.9995,17.228625 10.7995,16.428625 11.78575,16.428625" id="Fill-1"></path>
                <path d="M19.28575,20 C18.89075,20 18.572,19.68 18.572,19.28625 C18.572,14.88 15.1195,11.42875 10.7145,11.42875 C10.3195,11.42875 9.9995,11.10875 9.9995,10.71375 C9.9995,10.32 10.3195,10 10.7145,10 C15.922,10 19.9995,14.07875 19.9995,19.28625 C19.9995,19.68 19.68075,20 19.28575,20" id="Fill-3"></path>
                <path d="M16.428625,20 C16.033625,20 15.714875,19.68 15.714875,19.28625 C15.714875,16.4825 13.517375,14.28625 10.714875,14.28625 C10.319875,14.28625 9.999875,13.96625 9.999875,13.57125 C9.999875,13.1775 10.319875,12.8575 10.714875,12.8575 C14.319875,12.8575 17.142375,15.68125 17.142375,19.28625 C17.142375,19.68 16.823625,20 16.428625,20" id="Fill-5"></path>
                <path d="M6.25,18.75 L6.25,17.5 L8.15125,17.5 L8.15125,16.25 L3.12,16.25 C2.7775,16.25 2.5,15.9725 2.5,15.63 L2.5,3.12 C2.5,2.7775 2.7775,2.5 3.12,2.5 L11.88,2.5 C12.2225,2.5 12.5,2.7775 12.5,3.12 L12.5,7.5 C12.5,8.19 13.06,8.75 13.75,8.75 L13.75,8.75 C14.44,8.75 15,8.19 15,7.5 L15,2.49625 C15,1.1175 13.8825,0 12.50375,0 L2.49625,0 C1.1175,0 0,1.1175 0,2.49625 L0,17.50375 C0,18.8825 1.1175,20 2.49625,20 L8.15125,20 L8.15125,18.75 L6.25,18.75 Z" id="Fill-7"></path>
            </g>
        </g>
    </g>
</svg>